<?xml version="1.0" ?><svg enable-background="new 0 0 512 512" id="Layer_1" version="1.1" viewBox="0 0 512 512" xml:space="preserve" xmlns="http://www.w3.org/2000/svg" xmlns:xlink="http://www.w3.org/1999/xlink"><g><g><linearGradient gradientUnits="userSpaceOnUse" id="SVGID_1_" x1="-0.0000027" x2="512" y1="256" y2="256"><stop offset="0" style="stop-color:#FFCA05"/><stop offset="1" style="stop-color:#FAAC18"/></linearGradient><circle cx="256" cy="256" fill="url(#SVGID_1_)" r="256"/><linearGradient gradientUnits="userSpaceOnUse" id="SVGID_2_" x1="42.6666641" x2="469.3333435" y1="256.0005188" y2="256.0005188"><stop offset="0" style="stop-color:#FAAC18"/><stop offset="1" style="stop-color:#FFCA05"/></linearGradient><path d="M256,469.3338623c-117.6314697,0-213.3333435-95.7023926-213.3333435-213.3333435    c0-117.6314545,95.7018661-213.333313,213.3333435-213.333313c117.6357422,0,213.3333435,95.7018661,213.3333435,213.333313    C469.3333435,373.6314697,373.6357422,469.3338623,256,469.3338623z" fill="url(#SVGID_2_)"/></g><g><polygon opacity="0.3" points="322.6165466,149.0010681 322.6165466,189 362.6149292,189   "/><path d="M312.6165466,199v-55H160.3845367v240h207.2303925V199H312.6165466z M223.7610626,358.3685303h-36.8751984    V252.5349274h36.8751984V358.3685303z M282.4373474,358.3685303h-36.8752136v-75.8335876h36.8752136V358.3685303z     M341.1135864,358.3685303h-36.8751831v-45.8335876h36.8751831V358.3685303z" opacity="0.3"/></g><g><polygon fill="#FFFFFF" points="314.6165466,141.0010681 314.6165466,181 354.6149292,181   "/><path d="M304.6165466,191v-55H152.3845367v240h207.2303925V191H304.6165466z M215.7610626,350.3685303h-36.8751984    V244.5349274h36.8751984V350.3685303z M274.4373474,350.3685303h-36.8752136v-75.8335876h36.8752136V350.3685303z     M333.1135864,350.3685303h-36.8751831v-45.8335876h36.8751831V350.3685303z" fill="#FFFFFF"/></g></g></svg>